<svg width="100" height="100" viewBox="0 0 100 100" fill="none" xmlns="http://www.w3.org/2000/svg">
<path d="M49.9997 99.9993C77.6137 99.9993 99.9993 77.6137 99.9993 49.9997C99.9993 22.3856 77.6137 0 49.9997 0C22.3856 0 0 22.3856 0 49.9997C0 77.6137 22.3856 99.9993 49.9997 99.9993Z" fill="#14B0BF"/>
<path d="M73.9447 80.7747C70.7218 74.6735 49.9997 70.8447 49.9997 70.8447C49.9997 70.8447 29.2776 74.6735 26.0546 80.7747C23.6722 89.2418 21.6795 100 21.6795 100H49.9997H78.3199C78.3199 100 76.9736 88.4647 73.9447 80.7747Z" fill="#F1C9A5"/>
<path d="M49.9997 70.8447C49.9997 70.8447 70.7218 74.6735 73.9447 80.7747C76.9743 88.4647 78.3199 100 78.3199 100H49.9997V70.8447Z" fill="#E4B692"/>
<path d="M55.6409 58.4405H44.3584V77.3224H55.6409V58.4405Z" fill="#F1C9A5"/>
<path d="M55.6409 58.4405H49.9997V77.3224H55.6409V58.4405Z" fill="#E4B692"/>
<path opacity="0.1" d="M44.3584 67.19C45.3731 70.1029 49.4678 71.7724 52.4753 71.7724C53.5632 71.7724 54.6214 71.59 55.6409 71.2564V58.4405H44.3584V67.19Z" fill="#DDAC8C"/>
<path d="M64.5051 46.526C64.5051 34.7323 58.0108 28.026 49.9997 28.026C41.9885 28.026 35.4942 34.7323 35.4942 46.526C35.4942 62.3894 41.9885 67.8815 49.9997 67.8815C58.0101 67.8815 64.5051 61.7284 64.5051 46.526Z" fill="#F1C9A5"/>
<path d="M62.2968 54.7043C59.6672 54.4287 57.892 51.596 58.3368 48.3799C58.7768 45.1611 61.267 42.7711 63.898 43.0446C66.5262 43.3182 68.2986 46.1502 67.8552 49.369C67.4145 52.5885 64.9265 54.9764 62.2968 54.7043Z" fill="#E4B692"/>
<path d="M32.2464 49.3697C31.8022 46.1509 33.5753 43.3189 36.2022 43.0453C38.8339 42.7711 41.3247 45.1611 41.7661 48.3806C42.2095 51.5966 40.433 54.43 37.8054 54.705C35.1751 54.9764 32.687 52.5885 32.2464 49.3697Z" fill="#F1C9A5"/>
<path d="M64.5051 46.526C64.5051 34.7323 58.0108 28.026 49.9997 28.026V67.8815C58.0101 67.8815 64.5051 61.7284 64.5051 46.526Z" fill="#E4B692"/>
<path d="M73.9447 80.7747C72.0618 77.2119 64.2178 74.4262 58.0129 72.7235L49.9997 100L41.9864 72.7235C35.7815 74.4262 27.9368 77.2119 26.0539 80.7747C23.6715 89.2418 21.6788 100 21.6788 100H49.999H78.3192C78.3199 100 76.9736 88.4647 73.9447 80.7747Z" fill="#0D313D"/>
<path d="M41.7288 72.7235L49.9997 100L58.0433 72.7235L49.9997 81.8827L41.7288 72.7235Z" fill="#F1F2F2"/>
<path d="M49.9997 100L62.245 86.3614L58.0433 84.77L65.3534 74.8406L58.2498 72.7235L49.9997 100Z" fill="#2B5770"/>
<path d="M49.9997 100L37.7536 86.3614L41.9554 84.77L34.6453 74.8406L41.7488 72.7235L49.9997 100Z" fill="#2B5770"/>
<path d="M39.6193 83.8085L45.8891 77.9807L49.9886 81.882L44.3577 72.1005L40.9185 72.365C40.6719 76.1682 39.6193 83.8085 39.6193 83.8085Z" fill="white"/>
<path d="M60.3593 83.8085L54.0895 77.9807L49.9893 81.882L55.6202 72.1005L59.0593 72.365C59.3066 76.1682 60.3593 83.8085 60.3593 83.8085Z" fill="white"/>
<path d="M65.9253 43.8673C65.9253 43.8673 63.3392 41.916 62.2312 47.6436C62.5911 42.2613 62.3293 34.8366 57.9618 33.4779C55.5352 37.8441 45.9305 40.6568 39.6234 39.1047C40.1076 44.0538 38.6536 48.1298 37.0034 49.1963C37.1001 45.2177 37.0988 42.7911 34.5762 43.5682C33.8979 35.2241 38.4678 24.6469 50.7905 24.6469C63.114 24.6476 67.1873 32.9986 65.9253 43.8673Z" fill="#262421"/>
</svg>
